<mxfile host="Electron" modified="2023-12-13T23:12:03.225Z" agent="Mozilla/5.0 (X11; Linux x86_64) AppleWebKit/537.36 (KHTML, like Gecko) draw.io/22.1.2 Chrome/114.0.5735.289 Electron/25.9.4 Safari/537.36" etag="Qsq1moJUsyQ6SPNlNBEA" version="22.1.2" type="device">
  <diagram name="1 oldal" id="9zMQckgTDTX1H3_rx6Bh">
    <mxGraphModel dx="1434" dy="852" grid="1" gridSize="10" guides="0" tooltips="1" connect="1" arrows="1" fold="1" page="1" pageScale="1" pageWidth="827" pageHeight="1169" math="0" shadow="0">
      <root>
        <mxCell id="0" />
        <mxCell id="1" parent="0" />
        <mxCell id="w6vgq1pzGwEW8n4H8SYS-3" value="" style="curved=1;endArrow=none;html=1;rounded=0;endFill=0;strokeWidth=5;strokeColor=#6D7C9C;" parent="1" edge="1">
          <mxGeometry width="50" height="50" relative="1" as="geometry">
            <mxPoint x="386" y="350" as="sourcePoint" />
            <mxPoint x="530" y="360" as="targetPoint" />
            <Array as="points">
              <mxPoint x="390" y="360" />
              <mxPoint x="419" y="390" />
              <mxPoint x="450" y="390" />
              <mxPoint x="485" y="353" />
              <mxPoint x="510" y="351" />
              <mxPoint x="530" y="360" />
            </Array>
          </mxGeometry>
        </mxCell>
        <mxCell id="w6vgq1pzGwEW8n4H8SYS-12" value="" style="rounded=0;whiteSpace=wrap;html=1;strokeColor=#6D7C9C;" parent="1" vertex="1">
          <mxGeometry x="180" y="270" width="210" height="160" as="geometry" />
        </mxCell>
        <mxCell id="w6vgq1pzGwEW8n4H8SYS-2" value="" style="shape=cylinder3;whiteSpace=wrap;html=1;boundedLbl=1;backgroundOutline=1;size=15;strokeWidth=4;strokeColor=#6D7C9C;dashed=1;" parent="1" vertex="1">
          <mxGeometry x="530" y="270" width="130" height="160" as="geometry" />
        </mxCell>
        <mxCell id="w6vgq1pzGwEW8n4H8SYS-1" value="" style="swimlane;whiteSpace=wrap;html=1;strokeWidth=3;strokeColor=#6D7C9C;" parent="1" vertex="1">
          <mxGeometry x="180" y="270" width="210" height="160" as="geometry">
            <mxRectangle x="140" y="280" width="50" height="40" as="alternateBounds" />
          </mxGeometry>
        </mxCell>
        <mxCell id="w6vgq1pzGwEW8n4H8SYS-8" value="" style="editableCssRules=.*;html=1;shape=image;verticalLabelPosition=bottom;labelBackgroundColor=#ffffff;verticalAlign=top;aspect=fixed;imageAspect=0;image=data:image/svg+xml,PHN2ZyB4bWxucz0iaHR0cDovL3d3dy53My5vcmcvMjAwMC9zdmciIHhtbG5zOnY9Imh0dHBzOi8vdmVjdGEuaW8vbmFubyIgd2lkdGg9IjI3MS44OTgxMDE4MDY2NDA2IiBoZWlnaHQ9IjQyMy4wMDQwMjgzMjAzMTI1IiB2aWV3Qm94PSIwLjAwMDQ2MTI3MDM2MzMwMjkwMTQgMCAyNzEuODk4MTAxODA2NjQwNiA0MjMuMDA0MDI4MzIwMzEyNSI+JiN4YTsJPHN0eWxlIHR5cGU9InRleHQvY3NzIj4uc3QwIHsgZmlsbDogcmdiKDEwOSwgMTI0LCAxNTYpOyBmaWxsLXJ1bGU6IGV2ZW5vZGQ7IH0gPC9zdHlsZT4mI3hhOwk8cGF0aCBjbGFzcz0ic3QwIiBkPSJNMTk3LjM3OCAxNDQuNzc0YTMuMTEgMy4xMSAwIDAgMSAzLjEwNSAyLjkzNGwuMDA1LjE3N3YxNy4xMDdhMy4xMSAzLjExIDAgMCAxLTIuOTM0IDMuMTA1bC0uMTc3LjAwNWgtMTIuNDQxdjMwLjY0OWMwIDEuMjI3LjI5NyAyLjQzNS44NjIgMy41MjJsLjE2MS4yOTMgODMuODk1IDE0NC4yNjJhMTUuMjYgMTUuMjYgMCAwIDEgLjE4MiAxNC45MzZsLS4xODIuMzI0LTMwLjQzMSA1My4yODZhMTUuMjYgMTUuMjYgMCAwIDEtMTIuODYxIDcuNjI2bC0uMzU1LjAwNEg0NS42OTJhMTUuMjYgMTUuMjYgMCAwIDEtMTMuMDM1LTcuMzI0bC0uMTgxLS4zMDUtMzAuNDMxLTUzLjI4NmExNS4yNiAxNS4yNiAwIDAgMS0uMTgyLTE0LjkzNmwuMTgyLS4zMjQgODMuNjc0LTE0NC4yNjJjLjYyMS0xLjA3NyAxLjE2LTIuMjg5IDEuMjM0LTMuNTI4bC4wMDktLjI4N3YtMzAuNjQ5SDc0LjUyYy0xLjY1OCAwLTMuMDE0LTEuMjk5LTMuMTA1LTIuOTM0bC0uMDA1LS4xNzZ2LTE3LjEwN2EzLjExIDMuMTEgMCAwIDEgMi45MzQtMy4xMDVsLjE3Ni0uMDA1em0tMzUuNzY5IDIzLjMyN2gtNTEuMzJ2MzUuNDA1YzAgMi41MzEtLjYyOCA1LjAxOC0xLjgyNiA3LjI0MmwtLjIxNy4zOUwyOC4wMzMgMzUwLjlhNy42MyA3LjYzIDAgMCAwLS4xMzkgNy4zNzVsLjE0MS4yNTUgMjAuNzQxIDM1LjkyMWE3LjYzIDcuNjMgMCAwIDAgNi4zMjcgMy44MWwuMjgxLjAwNWgyNS41NzJsLTIyLjYwNS0zOS4xNTNjLTEuMzE0LTIuMjc2LTEuMzYxLTUuMDYyLS4xNDEtNy4zNzVsLjE0MS0uMjU1IDE5LjY3OS0zNC4wODZoMTQ2LjYwNkwyMTIuOTg4IDI5Ny4xaC01NC4yNTlsLTguODIxLTE1LjI3OGg1NC4zMTJsLTE2LjMzMy0yOC40NmgtNTQuNzhsLTguODIxLTE1LjI3OGg1NC44MzNsLTE1LjQ2NS0yNi45NDZhMTUuMjcgMTUuMjcgMCAwIDEtMi4wMzktNy4xODVsLS4wMDctLjQ0NnptNzIuODQ0IDE2Ni40MDFsLTU0LjE4MS4wMDEgOC44MjEgMTUuNTUyaDU0LjI4NXpNMTA0LjkyMSA3OS43OTVjOC40MjcgMCAxNS4yNTkgNi44MzMgMTUuMjU5IDE1LjI2MXMtNi44MzIgMTUuMjU5LTE1LjI1OSAxNS4yNTktMTUuMjU5LTYuODMyLTE1LjI1OS0xNS4yNTkgNi44MzItMTUuMjYxIDE1LjI1OS0xNS4yNjF6bTU3LjU3NS0zMi43NDNjMTIuNjQyIDAgMjIuODkgMTAuMjQ3IDIyLjg5IDIyLjg4OXMtMTAuMjQ5IDIyLjg4OS0yMi44OSAyMi44ODktMjIuODg5LTEwLjI0OS0yMi44ODktMjIuODg5IDEwLjI0Ny0yMi44ODkgMjIuODg5LTIyLjg4OXpNMTI3LjgxIDBjOC40MjcgMCAxNS4yNjEgNi44MzMgMTUuMjYxIDE1LjI2MVMxMzYuMjM3IDMwLjUyIDEyNy44MSAzMC41MnMtMTUuMjU5LTYuODMyLTE1LjI1OS0xNS4yNTlTMTE5LjM4NCAwIDEyNy44MSAweiIvPiYjeGE7PC9zdmc+;strokeColor=#6D7C9C;" parent="w6vgq1pzGwEW8n4H8SYS-1" vertex="1">
          <mxGeometry x="71" y="40" width="71.5" height="110" as="geometry" />
        </mxCell>
      </root>
    </mxGraphModel>
  </diagram>
</mxfile>
